<svg width="17" height="17" viewBox="0 0 17 17" fill="none" xmlns="http://www.w3.org/2000/svg">
<path d="M14.5159 2.73214H11.9366V1.6369C11.9366 1.56161 11.8813 1.5 11.8137 1.5H10.954C10.8864 1.5 10.8311 1.56161 10.8311 1.6369V2.73214H6.9007V1.6369C6.9007 1.56161 6.84542 1.5 6.77787 1.5H5.91809C5.85053 1.5 5.79526 1.56161 5.79526 1.6369V2.73214H3.21591C2.94416 2.73214 2.72461 2.97686 2.72461 3.27976V14.6429C2.72461 14.9458 2.94416 15.1905 3.21591 15.1905H14.5159C14.7877 15.1905 15.0072 14.9458 15.0072 14.6429V3.27976C15.0072 2.97686 14.7877 2.73214 14.5159 2.73214ZM13.9018 13.9583H3.83004V7.45536H13.9018V13.9583ZM3.83004 6.29167V3.96429H5.79526V4.78572C5.79526 4.86102 5.85053 4.92262 5.91809 4.92262H6.77787C6.84542 4.92262 6.9007 4.86102 6.9007 4.78572V3.96429H10.8311V4.78572C10.8311 4.86102 10.8864 4.92262 10.954 4.92262H11.8137C11.8813 4.92262 11.9366 4.86102 11.9366 4.78572V3.96429H13.9018V6.29167H3.83004Z" fill="#4F5D73"/>
</svg>
