<svg width="20" height="21" viewBox="0 0 20 21" fill="none" xmlns="http://www.w3.org/2000/svg">
<path d="M17.4001 4.34995H14.2501V3.14995C14.2501 3.06745 14.1826 2.99995 14.1001 2.99995H13.0501C12.9676 2.99995 12.9001 3.06745 12.9001 3.14995V4.34995H8.10009V3.14995C8.10009 3.06745 8.03259 2.99995 7.95009 2.99995H6.90009C6.81759 2.99995 6.75009 3.06745 6.75009 3.14995V4.34995H3.60009C3.26822 4.34995 3.00009 4.61808 3.00009 4.94995V17.4C3.00009 17.7318 3.26822 18 3.60009 18H17.4001C17.732 18 18.0001 17.7318 18.0001 17.4V4.94995C18.0001 4.61808 17.732 4.34995 17.4001 4.34995ZM16.6501 16.65H4.35009V9.52495H16.6501V16.65ZM4.35009 8.24995V5.69995H6.75009V6.59995C6.75009 6.68245 6.81759 6.74995 6.90009 6.74995H7.95009C8.03259 6.74995 8.10009 6.68245 8.10009 6.59995V5.69995H12.9001V6.59995C12.9001 6.68245 12.9676 6.74995 13.0501 6.74995H14.1001C14.1826 6.74995 14.2501 6.68245 14.2501 6.59995V5.69995H16.6501V8.24995H4.35009Z" fill="#2EB85C"/>
</svg>
