<svg width="23" height="21" viewBox="0 0 23 21" fill="none" xmlns="http://www.w3.org/2000/svg">
<path d="M19.7937 11.2326H16.3751V9.52324H19.7937V11.2326ZM19.7937 12.2093H16.3751V13.9186H19.7937V12.2093ZM19.7937 4.15116H16.3751V5.86045H19.7937V4.1512V4.15116ZM19.7937 6.8372H16.3751V8.54649H19.7937V6.8372ZM19.7937 14.8953H16.3751V16.6047H19.7937V14.8953V14.8953ZM22.155 18.2651C22.0573 18.773 21.4469 18.7852 21.0391 18.8024H13.4449V21H11.9285L0.752075 19.0465V1.95594L11.9944 0H13.4449V1.94616H20.7778C21.1905 1.96325 21.6447 1.93395 22.0036 2.18056C22.2551 2.54196 22.2307 3.00105 22.2478 3.41614L22.238 16.1285C22.2259 16.8391 22.304 17.5643 22.155 18.2651ZM9.70636 14.4338C9.03243 13.0664 8.34629 11.7087 7.67476 10.3413C8.33894 9.01045 8.99338 7.67478 9.64535 6.33906C9.09104 6.36593 8.53673 6.40011 7.98489 6.43919C7.57219 7.44278 7.09114 8.41953 6.76883 9.45733C6.46847 8.47814 6.07047 7.53556 5.70663 6.5808C5.16941 6.61011 4.63218 6.64185 4.095 6.67359C4.66149 7.92387 5.26467 9.15694 5.81407 10.4145C5.16697 11.6355 4.5614 12.8735 3.93382 14.1018C4.46857 14.1237 5.00336 14.1457 5.53811 14.153C5.91907 13.1812 6.39278 12.2459 6.72487 11.2545C7.02279 12.3192 7.52823 13.3033 7.94337 14.3215C8.53186 14.3631 9.11791 14.3997 9.7064 14.4338H9.70636ZM21.0832 3.10588H13.4449V4.15116H15.3984V5.86045H13.4449V6.8372H15.3984V8.54649H13.4449V9.52324H15.3984V11.2326H13.4449V12.2093H15.3984V13.9186H13.4449V14.8953H15.3984V16.6047H13.4449V17.7339H21.0832V3.10588Z" fill="#FEFEFE"/>
</svg>
